# xmcd
# Track frame offsets:
# 150
# 16088
# 35954
# 54459
# 88480
# 102997
# 115981
# 136171
# 156135
#
# Disc length: 2370 seconds
# Revision: 0
# Processed by: cddbd v1.5.2PL0 Copyright (c) Steve Scherf et al.
# Submitted via: VisiTrax 2.11.1.266 - For more info visit www.synapsa.com
#
DISCID=76094009
DTITLE=Supercharge - Horizontal Refreshment
DYEAR=2010
DGENRE=70s Soul Funk
TTITLE0=Play Some Fire
TTITLE1=After The Show
TTITLE2=Limbo Love
TTITLE3=Last Train
TTITLE4=Only You
TTITLE5=Bad Time
TTITLE6=Let The Feeling Show
TTITLE7=Mess You Made
TTITLE8=Realy Quite Easy
EXTD=Subbed by http://www.songofthesalesman.co.uk/
EXTT0=
EXTT1=
EXTT2=
EXTT3=
EXTT4=
EXTT5=
EXTT6=
EXTT7=
EXTT8=
PLAYORDER=
